<svg width="30" height="30" xmlns="http://www.w3.org/2000/svg" xmlns:xlink="http://www.w3.org/1999/xlink" overflow="hidden"><defs><clipPath id="clip0"><rect x="647" y="307" width="30" height="30"/></clipPath></defs><g clip-path="url(#clip0)" transform="translate(-647 -307)"><path d="M674.912 328.868C674.484 325.301 671.912 324.586 671.912 324.586L665.777 322.445C664.349 323.73 661.924 323.445 661.924 323.445 661.924 323.445 659.649 323.73 658.224 322.445L652.086 324.586C652.086 324.586 649.516 325.3 649.088 328.868L647.518 336.004 676.482 336.004Z" fill="#EE5450"/><path d="M658.22 322.445C658.22 322.445 657.745 325.132 662.011 327.216 662.011 327.216 658.818 327.47 657.904 330.439 657.84 330.566 656.1 324.025 658.22 322.445Z" fill="#FF897F"/><path d="M665.805 322.445C665.805 322.445 666.278 325.132 662.011 327.216 662.011 327.216 665.203 327.47 666.119 330.439 666.15 330.566 667.888 324.025 665.805 322.445Z" fill="#FF897F"/><path d="M662.003 319.316C664.184 319.281 665.981 321.021 666.016 323.202 666.051 325.383 664.312 327.18 662.13 327.215 659.949 327.251 658.152 325.511 658.117 323.33 658.117 323.309 658.117 323.288 658.117 323.267 658.099 321.103 659.839 319.335 662.003 319.316Z" fill="#F4CC90"/><path d="M658.173 317.243C658.352 318.134 658.045 318.948 657.487 319.06 656.929 319.172 656.333 318.54 656.156 317.65 655.979 316.76 656.283 315.945 656.841 315.834 657.398 315.723 657.994 316.35 658.173 317.243Z" fill="#FFD997"/><path d="M665.828 317.243C665.647 318.134 665.955 318.948 666.511 319.06 667.068 319.172 667.666 318.54 667.845 317.65 668.024 316.76 667.717 315.945 667.159 315.834 666.602 315.723 666.005 316.35 665.828 317.243Z" fill="#FFD997"/><path d="M666.99 317.828C666.99 321.461 664.393 324.406 661.959 324.406 659.525 324.406 656.927 321.461 656.927 317.828 656.927 314.195 659.526 311.25 661.959 311.25 664.393 311.25 666.99 314.194 666.99 317.828Z" fill="#FFD997"/><path d="M666.985 317.614C667.177 317.238 667.343 316.849 667.482 316.45 668.964 312.186 667.222 310.003 665.037 309.922L665.029 309.926C664.221 308.619 662.748 307.875 661.216 308 658.268 308.047 655.917 310.476 655.964 313.424 655.965 313.505 655.969 313.586 655.974 313.667 656.033 315.044 656.358 316.396 656.929 317.65 656.929 317.65 656.901 314.839 658.356 314.632 659.811 314.424 663.687 314.837 664.544 312.823 664.544 312.822 667.037 314.047 666.985 317.614Z" fill="#414141"/></g></svg>