<svg width="165" height="107" xmlns="http://www.w3.org/2000/svg" xmlns:xlink="http://www.w3.org/1999/xlink" overflow="hidden"><defs><clipPath id="clip0"><rect x="2304" y="1937" width="165" height="107"/></clipPath></defs><g clip-path="url(#clip0)" transform="translate(-2304 -1937)"><path d="M2386.1 2043.17C2330.63 2043.17 2305.64 1994.28 2304.61 1992.23 2303.93 1990.86 2303.93 1989.49 2304.61 1988.12 2305.64 1986.07 2330.63 1937.17 2386.1 1937.17 2441.57 1937.17 2466.56 1986.07 2467.59 1988.12 2468.27 1989.49 2468.27 1990.86 2467.59 1992.23 2466.56 1994.62 2441.57 2043.17 2386.1 2043.17L2386.1 2043.17ZM2313.86 1990.52C2318.99 1999.41 2342.62 2034.28 2386.1 2034.28 2429.58 2034.28 2453.21 1999.41 2458.34 1990.52 2453.21 1981.63 2429.58 1946.75 2386.1 1946.75 2342.62 1946.75 2318.99 1981.63 2313.86 1990.52L2313.86 1990.52Z" fill="#404040" fill-rule="evenodd"/><path d="M2396.97 2032.46C2373.68 2038.49 2350.13 2024.35 2344.19 2001.39 2338.24 1978.42 2352.3 1954.55 2375.26 1948.6 2398.23 1942.66 2422.11 1956.72 2428.05 1979.68 2433.99 2002.64 2420.27 2026.43 2396.97 2032.46L2396.97 2032.46ZM2377.5 1957.25C2359.2 1961.99 2348.1 1980.84 2352.84 1999.15 2357.58 2017.45 2376.43 2028.55 2394.73 2023.81 2413.04 2019.07 2424.13 2000.22 2419.4 1981.92 2414.66 1963.62 2395.81 1952.52 2377.5 1957.25L2377.5 1957.25Z" fill="#404040" fill-rule="evenodd"/><path d="M2394.45 2013.02C2382.2 2017.57 2368.18 2011.42 2363.51 1998.85 2362.67 1996.6 2363.88 1993.95 2366.14 1993.11 2368.39 1992.27 2371.05 1993.48 2371.89 1995.74 2374.76 2003.47 2383.16 2007.32 2390.89 2004.44 2398.62 2001.57 2402.47 1993.17 2399.59 1985.44 2396.72 1977.7 2388.32 1973.86 2380.59 1976.73 2378.33 1977.57 2375.68 1976.36 2374.84 1974.1 2374 1971.85 2375.22 1969.19 2377.47 1968.36 2389.72 1963.8 2403.74 1969.96 2408.41 1982.52 2413.09 1995.09 2406.69 2008.47 2394.45 2013.02" fill="#404040" fill-rule="evenodd"/></g></svg>