<svg width="64" height="64" xmlns="http://www.w3.org/2000/svg" xmlns:xlink="http://www.w3.org/1999/xlink" overflow="hidden"><defs><clipPath id="clip0"><rect x="866" y="304" width="64" height="64"/></clipPath></defs><g clip-path="url(#clip0)" transform="translate(-866 -304)"><path d="M882.7 358C880.3 358 878.1 357.1 876.4 355.4 874.7 353.7 873.8 351.5 873.8 349.1 873.8 346.7 874.7 344.5 876.4 342.8L901.8 317.4C906.4 312.8 914 312.8 918.6 317.4 920.8 319.6 922.1 322.6 922.1 325.8 922.1 329 920.9 331.9 918.6 334.2L899.6 353.2 897.6 351.2 916.6 332.2C920.1 328.7 920.1 322.9 916.6 319.4 913.1 315.9 907.3 315.9 903.8 319.4L878.4 344.8C877.2 345.9 876.6 347.5 876.6 349.1 876.6 350.7 877.2 352.3 878.4 353.4 880.8 355.8 884.6 355.8 887 353.4L906 334.4C907.2 333.2 907.2 331.2 906 330 904.8 328.8 902.8 328.8 901.6 330L888.9 342.7 886.9 340.7 899.6 328C901.9 325.7 905.6 325.7 907.9 328 910.2 330.3 910.2 334 907.9 336.3L888.9 355.3C887.3 357.1 885.1 358 882.7 358" fill="#404040"/></g></svg>