<svg width="143" height="143" xmlns="http://www.w3.org/2000/svg" xmlns:xlink="http://www.w3.org/1999/xlink" overflow="hidden"><defs><clipPath id="clip0"><rect x="574" y="753" width="143" height="143"/></clipPath></defs><g clip-path="url(#clip0)" transform="translate(-574 -753)"><path d="M122.633 82.991C121.767 82.991 121.068 82.2916 121.068 81.4265L121.068 51.8322C121.068 50.9686 121.767 50.2677 122.633 50.2677 123.498 50.2677 124.197 50.9686 124.197 51.8322L124.197 81.4265C124.197 82.2916 123.498 82.991 122.633 82.991Z" transform="matrix(-1 0 0 1 715.903 754.097)"/><path d="M102.982 99.1477C102.117 99.1477 101.418 98.4483 101.418 97.5831L101.418 62.8886C101.418 61.1332 90.8651 57.0201 70.4029 57.0201 49.9391 57.0201 39.3865 61.1332 39.3865 62.8886L39.3865 97.5831C39.3865 98.4483 38.6856 99.1477 37.822 99.1477 36.9584 99.1477 36.2575 98.4483 36.2575 97.5831L36.2575 62.8886C36.2575 55.7716 58.5924 53.8911 70.4029 53.8911 82.2134 53.8911 104.547 55.7716 104.547 62.8886L104.547 97.5831C104.547 98.4483 103.847 99.1477 102.982 99.1477Z" transform="matrix(-1 0 0 1 715.903 754.097)"/><path d="M70.4029 106.581C58.5924 106.581 36.2575 104.7 36.2575 97.5831 36.2575 90.4662 58.5924 88.5857 70.4029 88.5857 82.2134 88.5857 104.547 90.4662 104.547 97.5831 104.547 104.7 82.2134 106.581 70.4029 106.581ZM70.4029 91.7147C49.9391 91.7147 39.3865 95.8278 39.3865 97.5831 39.3865 99.3385 49.9391 103.452 70.4029 103.452 90.8651 103.452 101.418 99.3385 101.418 97.5831 101.418 95.8278 90.8651 91.7147 70.4029 91.7147Z" transform="matrix(-1 0 0 1 715.903 754.097)"/><path d="M127.728 106.581 117.537 106.581C116.672 106.581 115.972 105.881 115.972 105.016L115.972 86.5221C115.972 82.8486 118.959 79.8619 122.633 79.8619 126.306 79.8619 129.293 82.8486 129.293 86.5221L129.293 105.016C129.293 105.881 128.592 106.581 127.728 106.581ZM119.101 103.452 126.164 103.452 126.164 86.5221C126.164 84.5758 124.579 82.991 122.633 82.991 120.686 82.991 119.101 84.5758 119.101 86.5221L119.101 103.452Z" transform="matrix(-1 0 0 1 715.903 754.097)"/><path d="M102.982 74.0373C102.324 74.0373 101.712 73.6196 101.496 72.9609 101.227 72.1395 101.673 71.2556 102.494 70.9849L137.2 59.5812C137.614 59.4482 137.677 59.1119 137.677 58.9257 137.677 58.7395 137.614 58.4031 137.2 58.267L76.5436 38.3367C72.5275 37.0163 68.2783 37.0163 64.2622 38.3367L3.60619 58.267C3.1916 58.4031 3.12902 58.7379 3.12902 58.9257 3.12902 59.1134 3.1916 59.4482 3.60619 59.5843L38.3117 70.9881C39.1331 71.2571 39.5805 72.1411 39.3099 72.964 39.0408 73.7838 38.1568 74.2313 37.3355 73.9622L2.62994 62.5569C1.03258 62.0312 0 60.606 0 58.9257 0 57.2454 1.03258 55.8186 2.62994 55.2945L63.286 35.3642C67.9419 33.8356 72.8655 33.8356 77.5214 35.3642L138.177 55.2945C139.773 55.8186 140.806 57.2438 140.806 58.9257 140.806 60.6075 139.773 62.0328 138.174 62.5569L103.47 73.9606C103.309 74.0138 103.145 74.0373 102.982 74.0373Z" transform="matrix(-1 0 0 1 715.903 754.097)"/></g></svg>