<svg width="64" height="64" xmlns="http://www.w3.org/2000/svg" xmlns:xlink="http://www.w3.org/1999/xlink" overflow="hidden"><defs><clipPath id="clip0"><rect x="967" y="153" width="64" height="64"/></clipPath></defs><g clip-path="url(#clip0)" transform="translate(-967 -153)"><path d="M985 207.4 982.5 207.4 984 205.3C985.1 203.7 985.9 201.8 986.3 199.3 979.2 196.1 975.4 190.1 975.4 182.2 975.4 170.1 984.5 162.6 999.2 162.6 1013.9 162.6 1023 170.1 1023 182.2 1023 194.4 1014.1 201.8 999.2 201.8 998.9 201.8 998.5 201.8 998.2 201.8 995.8 204.4 991.8 207.4 985 207.4L985 207.4ZM999 165.2C985.7 165.2 977.8 171.5 977.8 182.2 977.8 191.3 983.4 195.4 988 197.3L988.9 197.7 988.8 198.7C988.5 201 988 203 987.2 204.7 992 204.1 994.8 201.7 996.3 199.7L996.7 199.2 997.6 199.2C998 199.2 998.5 199.2 998.9 199.2 1018 199.2 1020.1 187.3 1020.1 182.2 1020.2 171.6 1012.3 165.2 999 165.2L999 165.2Z" fill="#404040"/></g></svg>