<svg width="64" height="64" xmlns="http://www.w3.org/2000/svg" xmlns:xlink="http://www.w3.org/1999/xlink" overflow="hidden"><defs><clipPath id="clip0"><rect x="676" y="431" width="64" height="64"/></clipPath></defs><g clip-path="url(#clip0)" transform="translate(-676 -431)"><path d="M731.5 449.8 729.6 447.9 712 465.5C709.8 467.7 706.1 467.7 703.9 465.5L686.3 448 684.4 449.9 697.5 463 684.4 476.1 686.3 478 699.4 464.9 702 467.5C703.6 469.1 705.7 470 707.9 470 710.1 470 712.2 469.1 713.8 467.5L716.4 464.9 729.5 478 731.4 476.1 718.3 463 731.5 449.8" fill="#404040"/><path d="M727.8 481.4 688.3 481.4C686 481.4 684.1 479.5 684.1 477.2L684.1 449C684.1 446.7 686 444.8 688.3 444.8L727.8 444.8C730.1 444.8 732 446.7 732 449L732 477.2C732 479.5 730.1 481.4 727.8 481.4L727.8 481.4ZM688.2 447.5C687.4 447.5 686.8 448.1 686.8 448.9L686.8 477.1C686.8 477.9 687.4 478.5 688.2 478.5L727.7 478.5C728.5 478.5 729.1 477.9 729.1 477.1L729.1 448.9C729.1 448.1 728.5 447.5 727.7 447.5L688.2 447.5 688.2 447.5Z" fill="#404040"/></g></svg>