<svg width="64" height="64" xmlns="http://www.w3.org/2000/svg" xmlns:xlink="http://www.w3.org/1999/xlink" overflow="hidden"><defs><clipPath id="clip0"><rect x="469" y="150" width="64" height="64"/></clipPath></defs><g clip-path="url(#clip0)" transform="translate(-469 -150)"><path d="M525 182.4C525 179.2 522.5 177.5 519 177.5L508.9 177.5C509.6 174.8 510 172.2 510 170 510 161.3 507.6 159.5 505.5 159.5 504.1 159.5 503.1 159.6 501.7 160.5 501.3 160.7 501.1 161.1 501 161.5L499.5 169.6C497.9 173.9 493.8 177.6 490.5 180.1L490.5 201.5C491.6 201.5 493 202.1 494.3 202.8 495.9 203.6 497.6 204.4 499.5 204.4L513.8 204.4C516.8 204.4 519 202 519 199.9 519 199.5 519 199.1 518.9 198.8 520.8 198.1 522 196.5 522 194.7 522 193.8 521.8 193 521.5 192.4 522.6 191.6 523.8 190.3 523.8 188.7 523.8 187.9 523.4 186.9 522.8 186.2 524.1 185.2 525 183.8 525 182.4L525 182.4ZM521.9 182.4C521.9 184.3 519.9 184.5 519.6 185.4 519.3 186.4 520.8 186.8 520.8 188.6 520.8 190.5 518.5 190.5 518.2 191.4 517.8 192.5 518.9 192.9 518.9 194.7 518.9 194.8 518.9 194.9 518.9 195 518.6 196.5 516.3 196.6 515.9 197.2 515.5 197.9 516 198.3 516 199.9 516 200.8 515 201.4 513.8 201.4L499.5 201.4C498.4 201.4 497 200.8 495.7 200.1 494.5 199.5 493.3 198.9 492 198.6L492 182.7C495.7 179.9 500.5 175.6 502.4 170.4 502.4 170.3 502.4 170.2 502.5 170.2L503.9 162.7C504.4 162.5 504.8 162.5 505.6 162.5 505.9 162.5 507.1 164.3 507.1 170 507.1 172.2 506.7 174.7 505.9 177.5L505.5 177.5C504.7 177.5 504 178.2 504 179 504 179.8 504.7 180.5 505.5 180.5L519 180.5C520.5 180.5 521.9 181.2 521.9 182.4L521.9 182.4Z" fill="#595959"/><path d="M489 204.5 480 204.5C478.3 204.5 477 203.2 477 201.5L477 180.5C477 178.8 478.3 177.5 480 177.5L489 177.5C490.7 177.5 492 178.8 492 180.5L492 201.5C492 203.2 490.7 204.5 489 204.5L489 204.5ZM480 180.5 480 201.5 489 201.5 489 180.5 480 180.5 480 180.5Z" fill="#595959"/></g></svg>