<svg width="319" height="319" xmlns="http://www.w3.org/2000/svg" xmlns:xlink="http://www.w3.org/1999/xlink" overflow="hidden"><defs><clipPath id="clip0"><rect x="1332" y="704" width="319" height="319"/></clipPath></defs><g clip-path="url(#clip0)" transform="translate(-1332 -704)"><path d="M1463 776.5C1463 760.76 1475.76 748 1491.5 748 1507.24 748 1520 760.76 1520 776.5 1520 792.24 1507.24 805 1491.5 805 1475.76 805 1463 792.24 1463 776.5Z" fill-rule="evenodd"/><path d="M1463 861.5C1463 845.76 1475.76 833 1491.5 833 1507.24 833 1520 845.76 1520 861.5 1520 877.24 1507.24 890 1491.5 890 1475.76 890 1463 877.24 1463 861.5Z" fill-rule="evenodd"/><path d="M1463 946C1463 929.984 1475.76 917 1491.5 917 1507.24 917 1520 929.984 1520 946 1520 962.016 1507.24 975 1491.5 975 1475.76 975 1463 962.016 1463 946Z" fill-rule="evenodd"/></g></svg>