<svg width="64" height="64" xmlns="http://www.w3.org/2000/svg" xmlns:xlink="http://www.w3.org/1999/xlink" overflow="hidden"><defs><clipPath id="clip0"><rect x="1041" y="383" width="64" height="64"/></clipPath></defs><g clip-path="url(#clip0)" transform="translate(-1041 -383)"><path d="M1073 438.9C1059.8 438.9 1049.1 428.2 1049.1 415 1049.1 401.8 1059.8 391.1 1073 391.1 1086.2 391.1 1096.9 401.8 1096.9 415 1096.9 428.2 1086.2 438.9 1073 438.9L1073 438.9ZM1073 393.7C1061.3 393.7 1051.7 403.3 1051.7 415 1051.7 426.7 1061.3 436.3 1073 436.3 1084.7 436.3 1094.3 426.7 1094.3 415 1094.3 403.3 1084.7 393.7 1073 393.7L1073 393.7Z" fill="#404040"/><path d="M1071.6 424.9 1074.4 424.9 1074.4 427.7 1071.6 427.7Z" fill="#404040"/><path d="M1073.8 422.1 1072.2 422.1 1071.6 410.8 1071.6 402.3 1074.4 402.3 1074.4 410.8 1073.8 422.1" fill="#404040"/></g></svg>