<svg xmlns="http://www.w3.org/2000/svg" xmlns:xlink="http://www.w3.org/1999/xlink" version="1.1" width="256" height="256" viewBox="0 0 256 256" xml:space="preserve">
<desc>Created with Fabric.js 1.7.22</desc>
<defs>
</defs>
<g transform="translate(128 128) scale(0.72 0.72)" style="">
	<g style="stroke: none; stroke-width: 0; stroke-dasharray: none; stroke-linecap: butt; stroke-linejoin: miter; stroke-miterlimit: 10; fill: none; fill-rule: nonzero; opacity: 1;" transform="translate(-175.05 -175.05000000000004) scale(3.89 3.89)" >
	<path d="M 45 90 C 20.187 90 0 69.813 0 45 C 0 20.187 20.187 0 45 0 c 24.813 0 45 20.187 45 45 C 90 69.813 69.813 90 45 90 z M 45 2 C 21.29 2 2 21.29 2 45 c 0 23.71 19.29 43 43 43 c 23.71 0 43 -19.29 43 -43 C 88 21.29 68.71 2 45 2 z" style="stroke: none; stroke-width: 1; stroke-dasharray: none; stroke-linecap: butt; stroke-linejoin: miter; stroke-miterlimit: 10; fill: rgb(0,0,0); fill-rule: nonzero; opacity: 1;" transform=" matrix(1 0 0 1 0 0) " stroke-linecap="round" />
	<path d="M 60.835 68 H 29.166 c -1.598 0 -2.897 -1.3 -2.897 -2.897 v -2.956 c 0 -6.757 4.522 -12.877 10.997 -14.882 c 0.946 -0.293 1.581 -1.15 1.581 -2.134 c 0 -0.6 -0.24 -1.167 -0.674 -1.596 c -1.868 -1.841 -2.896 -4.295 -2.896 -6.911 v -4.9 c 0 -2.663 1.056 -5.148 2.972 -6.998 c 1.916 -1.849 4.438 -2.802 7.106 -2.72 c 5.167 0.184 9.37 4.637 9.37 9.927 v 4.691 c 0 2.615 -1.028 5.069 -2.896 6.911 c -0.436 0.429 -0.675 0.996 -0.675 1.596 c 0 0.983 0.636 1.841 1.582 2.134 c 6.475 2.005 10.996 8.125 10.996 14.882 v 2.956 C 63.731 66.7 62.432 68 60.835 68 z M 44.998 24 c -2.013 0 -3.907 0.763 -5.361 2.166 c -1.522 1.469 -2.361 3.443 -2.361 5.559 v 4.9 c 0 2.076 0.817 4.024 2.3 5.487 c 0.819 0.808 1.27 1.88 1.27 3.02 c 0 1.865 -1.201 3.491 -2.99 4.044 c -5.646 1.749 -9.588 7.083 -9.588 12.972 v 2.956 c 0 0.495 0.403 0.897 0.897 0.897 h 31.669 c 0.494 0 0.896 -0.402 0.896 -0.897 v -2.956 c 0 -5.889 -3.942 -11.223 -9.588 -12.972 c -1.788 -0.553 -2.99 -2.179 -2.99 -4.044 c 0 -1.14 0.451 -2.212 1.271 -3.02 c 1.483 -1.463 2.3 -3.411 2.3 -5.487 v -4.691 c 0 -4.226 -3.338 -7.782 -7.441 -7.928 C 45.188 24.002 45.092 24 44.998 24 z" style="stroke: none; stroke-width: 1; stroke-dasharray: none; stroke-linecap: butt; stroke-linejoin: miter; stroke-miterlimit: 10; fill: rgb(0,0,0); fill-rule: nonzero; opacity: 1;" transform=" matrix(1 0 0 1 0 0) " stroke-linecap="round" />
</g>
</g>
</svg>