<svg xmlns="http://www.w3.org/2000/svg" xmlns:xlink="http://www.w3.org/1999/xlink" version="1.1" width="256" height="256" viewBox="0 0 256 256" xml:space="preserve">
<desc>Created with Fabric.js 1.7.22</desc>
<defs>
</defs>
<g transform="translate(128 128) scale(0.72 0.72)" style="">
	<g style="stroke: none; stroke-width: 0; stroke-dasharray: none; stroke-linecap: butt; stroke-linejoin: miter; stroke-miterlimit: 10; fill: none; fill-rule: nonzero; opacity: 1;" transform="translate(-175.05 -175.05000000000004) scale(3.89 3.89)" >
	<path d="M 36.274 40.802 H 4.527 C 2.031 40.802 0 38.771 0 36.274 V 4.527 C 0 2.031 2.031 0 4.527 0 h 31.747 c 2.497 0 4.527 2.031 4.527 4.527 v 31.747 C 40.802 38.771 38.771 40.802 36.274 40.802 z M 4.527 2 C 3.134 2 2 3.134 2 4.527 v 31.747 c 0 1.394 1.134 2.527 2.527 2.527 h 31.747 c 1.394 0 2.527 -1.134 2.527 -2.527 V 4.527 C 38.802 3.134 37.668 2 36.274 2 H 4.527 z" style="stroke: none; stroke-width: 1; stroke-dasharray: none; stroke-linecap: butt; stroke-linejoin: miter; stroke-miterlimit: 10; fill: rgb(0,0,0); fill-rule: nonzero; opacity: 1;" transform=" matrix(1 0 0 1 0 0) " stroke-linecap="round" />
	<path d="M 85.473 40.802 H 53.726 c -2.496 0 -4.527 -2.031 -4.527 -4.527 V 4.527 C 49.198 2.031 51.229 0 53.726 0 h 31.747 C 87.969 0 90 2.031 90 4.527 v 31.747 C 90 38.771 87.969 40.802 85.473 40.802 z M 53.726 2 c -1.394 0 -2.527 1.134 -2.527 2.527 v 31.747 c 0 1.394 1.134 2.527 2.527 2.527 h 31.747 c 1.394 0 2.527 -1.134 2.527 -2.527 V 4.527 C 88 3.134 86.866 2 85.473 2 H 53.726 z" style="stroke: none; stroke-width: 1; stroke-dasharray: none; stroke-linecap: butt; stroke-linejoin: miter; stroke-miterlimit: 10; fill: rgb(0,0,0); fill-rule: nonzero; opacity: 1;" transform=" matrix(1 0 0 1 0 0) " stroke-linecap="round" />
	<path d="M 36.274 90 H 4.527 C 2.031 90 0 87.969 0 85.473 V 53.726 c 0 -2.496 2.031 -4.527 4.527 -4.527 h 31.747 c 2.497 0 4.527 2.031 4.527 4.527 v 31.747 C 40.802 87.969 38.771 90 36.274 90 z M 4.527 51.198 C 3.134 51.198 2 52.332 2 53.726 v 31.747 C 2 86.866 3.134 88 4.527 88 h 31.747 c 1.394 0 2.527 -1.134 2.527 -2.527 V 53.726 c 0 -1.394 -1.134 -2.527 -2.527 -2.527 H 4.527 z" style="stroke: none; stroke-width: 1; stroke-dasharray: none; stroke-linecap: butt; stroke-linejoin: miter; stroke-miterlimit: 10; fill: rgb(0,0,0); fill-rule: nonzero; opacity: 1;" transform=" matrix(1 0 0 1 0 0) " stroke-linecap="round" />
	<path d="M 85.473 90 H 53.726 c -2.496 0 -4.527 -2.031 -4.527 -4.527 V 53.726 c 0 -2.496 2.031 -4.527 4.527 -4.527 h 31.747 c 2.496 0 4.527 2.031 4.527 4.527 v 31.747 C 90 87.969 87.969 90 85.473 90 z M 53.726 51.198 c -1.394 0 -2.527 1.134 -2.527 2.527 v 31.747 c 0 1.394 1.134 2.527 2.527 2.527 h 31.747 C 86.866 88 88 86.866 88 85.473 V 53.726 c 0 -1.394 -1.134 -2.527 -2.527 -2.527 H 53.726 z" style="stroke: none; stroke-width: 1; stroke-dasharray: none; stroke-linecap: butt; stroke-linejoin: miter; stroke-miterlimit: 10; fill: rgb(0,0,0); fill-rule: nonzero; opacity: 1;" transform=" matrix(1 0 0 1 0 0) " stroke-linecap="round" />
</g>
</g>
</svg>