<svg width="165" height="107" xmlns="http://www.w3.org/2000/svg" xmlns:xlink="http://www.w3.org/1999/xlink" overflow="hidden"><defs><clipPath id="clip0"><rect x="2304" y="1937" width="165" height="107"/></clipPath></defs><g clip-path="url(#clip0)" transform="translate(-2304 -1937)"><path d="M2386.1 2043.17C2330.63 2043.17 2305.64 1994.28 2304.61 1992.23 2303.93 1990.86 2303.93 1989.49 2304.61 1988.12 2305.64 1986.07 2330.63 1937.17 2386.1 1937.17 2441.57 1937.17 2466.56 1986.07 2467.59 1988.12 2468.27 1989.49 2468.27 1990.86 2467.59 1992.23 2466.56 1994.62 2441.57 2043.17 2386.1 2043.17L2386.1 2043.17ZM2313.86 1990.52C2318.99 1999.41 2342.62 2034.28 2386.1 2034.28 2429.58 2034.28 2453.21 1999.41 2458.34 1990.52 2453.21 1981.63 2429.58 1946.75 2386.1 1946.75 2342.62 1946.75 2318.99 1981.63 2313.86 1990.52L2313.86 1990.52Z" fill="#404040" fill-rule="evenodd"/><path d="M2386.1 2034.18C2362.21 2034.18 2343.1 2014.5 2343.1 1990.68 2343.1 1966.85 2362.55 1947.18 2386.1 1947.18 2409.65 1947.18 2429.1 1966.85 2429.1 1990.68 2429.1 2014.5 2409.99 2034.18 2386.1 2034.18L2386.1 2034.18ZM2386.1 1956.15C2367.33 1956.15 2351.97 1971.69 2351.97 1990.68 2351.97 2009.66 2367.33 2025.2 2386.1 2025.2 2404.87 2025.2 2420.23 2009.66 2420.23 1990.68 2420.23 1971.69 2404.87 1956.15 2386.1 1956.15L2386.1 1956.15Z" fill="#404040" fill-rule="evenodd"/><path d="M2386.27 2014.17C2373.15 2014.17 2362.1 2003.69 2362.1 1990.5 2362.1 1988.14 2364.17 1986.11 2366.59 1986.11 2369.01 1986.11 2371.08 1988.14 2371.08 1990.5 2371.08 1998.62 2377.64 2005.04 2385.93 2005.04 2394.22 2005.04 2400.78 1998.62 2400.78 1990.5 2400.78 1982.39 2394.22 1975.96 2385.93 1975.96 2383.51 1975.96 2381.44 1973.93 2381.44 1971.57 2381.44 1969.2 2383.51 1967.17 2385.93 1967.17 2399.05 1967.17 2410.1 1977.65 2410.1 1990.84 2410.1 2004.03 2399.4 2014.17 2386.27 2014.17" fill="#404040" fill-rule="evenodd"/></g></svg>