<svg xmlns="http://www.w3.org/2000/svg" xmlns:xlink="http://www.w3.org/1999/xlink" version="1.1" width="256" height="256" viewBox="0 0 256 256" xml:space="preserve">
<desc>Created with Fabric.js 1.7.22</desc>
<defs>
</defs>
<g transform="translate(128 128) scale(0.72 0.72)" style="">
	<g style="stroke: none; stroke-width: 0; stroke-dasharray: none; stroke-linecap: butt; stroke-linejoin: miter; stroke-miterlimit: 10; fill: none; fill-rule: nonzero; opacity: 1;" transform="translate(-175.05 -175.05000000000004) scale(3.89 3.89)" >
	<path d="M 74.436 51.408 c 0 -0.384 -0.146 -0.768 -0.439 -1.061 c -0.586 -0.586 -1.535 -0.586 -2.121 0 L 45 77.223 L 18.125 50.348 c -0.585 -0.586 -1.536 -0.586 -2.121 0 c -0.586 0.586 -0.586 1.535 0 2.121 l 27.936 27.936 c 0.585 0.586 1.536 0.586 2.121 0 l 27.936 -27.936 C 74.289 52.176 74.436 51.792 74.436 51.408 z" style="stroke: none; stroke-width: 1; stroke-dasharray: none; stroke-linecap: butt; stroke-linejoin: miter; stroke-miterlimit: 10; fill: rgb(29,29,27); fill-rule: nonzero; opacity: 1;" transform=" matrix(1 0 0 1 0 0) " stroke-linecap="round" />
	<path d="M 46.5 79.344 V 1.5 C 46.5 0.671 45.829 0 45 0 s -1.5 0.671 -1.5 1.5 v 77.844 c 0 0.828 0.671 1.5 1.5 1.5 S 46.5 80.172 46.5 79.344 z" style="stroke: none; stroke-width: 1; stroke-dasharray: none; stroke-linecap: butt; stroke-linejoin: miter; stroke-miterlimit: 10; fill: rgb(29,29,27); fill-rule: nonzero; opacity: 1;" transform=" matrix(1 0 0 1 0 0) " stroke-linecap="round" />
	<path d="M 74.436 88.5 c 0 -0.828 -0.672 -1.5 -1.5 -1.5 H 17.064 c -0.829 0 -1.5 0.672 -1.5 1.5 s 0.671 1.5 1.5 1.5 h 55.871 C 73.764 90 74.436 89.328 74.436 88.5 z" style="stroke: none; stroke-width: 1; stroke-dasharray: none; stroke-linecap: butt; stroke-linejoin: miter; stroke-miterlimit: 10; fill: rgb(29,29,27); fill-rule: nonzero; opacity: 1;" transform=" matrix(1 0 0 1 0 0) " stroke-linecap="round" />
</g>
</g>
</svg>