<svg width="165" height="165" xmlns="http://www.w3.org/2000/svg" xmlns:xlink="http://www.w3.org/1999/xlink" overflow="hidden"><defs><clipPath id="clip0"><rect x="2832" y="1872" width="165" height="165"/></clipPath></defs><g clip-path="url(#clip0)" transform="translate(-2832 -1872)"><path d="M2914.06 2036.1C2868.78 2036.1 2832.06 1999.39 2832.06 1954.1 2832.06 1908.81 2868.78 1872.1 2914.06 1872.1 2959.35 1872.1 2996.06 1908.81 2996.06 1954.1 2996.06 1999.39 2959.35 2036.1 2914.06 2036.1L2914.06 2036.1ZM2914.06 1881.02C2873.92 1881.02 2840.98 1913.96 2840.98 1954.1 2840.98 1994.24 2873.92 2027.18 2914.06 2027.18 2954.21 2027.18 2987.14 1994.24 2987.14 1954.1 2987.14 1913.61 2954.21 1881.02 2914.06 1881.02L2914.06 1881.02Z" fill="#404040" fill-rule="evenodd"/><path d="M2888.57 1928.29C2889.95 1924.51 2891.68 1921.42 2894.1 1919.01 2896.51 1916.6 2899.62 1914.54 2903.08 1913.16 2906.53 1911.79 2910.67 1911.1 2915.16 1911.1 2918.62 1911.1 2922.07 1911.79 2925.18 1912.82 2928.29 1913.85 2931.05 1915.57 2933.47 1917.29 2935.88 1919.01 2937.61 1921.76 2938.99 1924.51 2940.37 1927.26 2941.06 1930.7 2941.06 1934.48 2941.06 1939.3 2940.03 1943.08 2937.96 1946.52 2935.88 1949.96 2933.12 1953.05 2930.01 1956.15 2927.25 1958.9 2925.18 1960.96 2923.8 1962.34 2922.07 1963.71 2921.03 1965.43 2920.34 1966.81 2919.65 1968.18 2918.96 1969.9 2918.96 1971.97 2918.62 1974.03 2918.62 1975.4 2918.62 1979.19L2910.67 1979.19C2910.67 1975.4 2910.67 1973.69 2911.36 1971.28 2911.71 1968.53 2912.75 1966.46 2913.78 1964.06 2914.82 1961.99 2916.54 1959.93 2918.27 1957.87 2920.34 1955.8 2922.42 1953.74 2925.18 1951.33 2927.6 1949.27 2929.67 1946.86 2931.05 1944.11 2932.78 1941.36 2933.47 1938.27 2933.47 1935.17 2933.47 1932.76 2933.12 1930.36 2932.09 1928.29 2931.05 1926.23 2929.67 1924.51 2928.29 1922.79 2926.91 1921.07 2924.83 1920.04 2922.42 1919.35 2920.34 1918.67 2917.93 1917.98 2915.51 1917.98 2912.06 1917.98 2908.95 1918.67 2906.53 1919.7 2903.77 1920.73 2901.69 1922.45 2899.97 1924.51 2898.24 1926.57 2896.86 1928.98 2896.17 1931.73 2895.48 1934.48 2894.79 1936.89 2895.13 1939.99L2887.19 1939.99C2886.84 1935.17 2887.19 1932.08 2888.57 1928.29L2888.57 1928.29ZM2909.29 1988.47 2918.96 1988.47 2918.96 1998.1 2909.29 1998.1 2909.29 1988.47Z" fill="#404040" fill-rule="evenodd"/></g></svg>