<svg width="64" height="64" xmlns="http://www.w3.org/2000/svg" xmlns:xlink="http://www.w3.org/1999/xlink" overflow="hidden"><defs><clipPath id="clip0"><rect x="935" y="242" width="64" height="64"/></clipPath></defs><g clip-path="url(#clip0)" transform="translate(-935 -242)"><path d="M967.1 297.9C953.9 297.9 943.2 287.2 943.2 274 943.2 260.8 953.9 250.1 967.1 250.1 980.3 250.1 991 260.8 991 274 991 287.1 980.3 297.9 967.1 297.9L967.1 297.9ZM967.1 252.6C955.4 252.6 945.8 262.2 945.8 273.9 945.8 285.6 955.4 295.2 967.1 295.2 978.8 295.2 988.4 285.6 988.4 273.9 988.4 262.2 978.8 252.6 967.1 252.6L967.1 252.6Z" fill="#134563"/><path d="M956.7 286.2 954.8 284.3 977.4 261.7 979.3 263.6 956.7 286.2" fill="#134563"/><path d="M977.4 286.2 954.8 263.6 956.7 261.7 979.3 284.3 977.4 286.2" fill="#134563"/></g></svg>