<svg width="64" height="64" xmlns="http://www.w3.org/2000/svg" xmlns:xlink="http://www.w3.org/1999/xlink" overflow="hidden"><defs><clipPath id="clip0"><rect x="534" y="346" width="64" height="64"/></clipPath></defs><g clip-path="url(#clip0)" transform="translate(-534 -346)"><path d="M558.5 368.9 561.5 368.9 561.5 392.9 558.5 392.9Z" fill="#404040"/><path d="M564.5 368.9 567.5 368.9 567.5 392.9 564.5 392.9Z" fill="#404040"/><path d="M570.5 368.9 573.5 368.9 573.5 392.9 570.5 392.9Z" fill="#404040"/><path d="M546.5 359.9 585.5 359.9 585.5 362.9 546.5 362.9Z" fill="#404040"/><path d="M573.4 361.4 570.6 361.4 570.6 358.4C570.6 357.5 569.9 356.8 569 356.8L563 356.8C562.1 356.8 561.4 357.5 561.4 358.4L561.4 361.4 558.6 361.4 558.6 358.4C558.6 356 560.6 354 563 354L569 354C571.4 354 573.4 356 573.4 358.4L573.4 361.4" fill="#404040"/><path d="M575 401.9 557 401.9C554.6 401.9 552.5 399.9 552.3 397.5L549.5 361.5 552.5 361.3 555.3 397.3C555.4 398.2 556.2 398.9 557 398.9L575 398.9C575.9 398.9 576.7 398.1 576.7 397.3L579.5 361.3 582.5 361.5 579.7 397.5C579.5 400 577.4 401.9 575 401.9" fill="#404040"/></g></svg>