<svg width="64" height="64" xmlns="http://www.w3.org/2000/svg" xmlns:xlink="http://www.w3.org/1999/xlink" overflow="hidden"><defs><clipPath id="clip0"><rect x="678" y="598" width="64" height="64"/></clipPath></defs><g clip-path="url(#clip0)" transform="translate(-678 -598)"><path d="M710 650.9 709.2 650.2C691 635.4 686.1 630.2 686.1 621.7 686.1 614.7 691.8 609.1 698.7 609.1 704.5 609.1 707.8 612.4 710 614.9 712.2 612.4 715.5 609.1 721.3 609.1 728.3 609.1 733.9 614.8 733.9 621.7 733.9 630.2 729 635.4 710.8 650.2L710 650.9 710 650.9ZM698.7 611.7C693.2 611.7 688.7 616.2 688.7 621.7 688.7 629 693.3 633.8 710 647.5 726.7 633.8 731.3 629 731.3 621.7 731.3 616.2 726.8 611.7 721.3 611.7 716.3 611.7 713.6 614.7 711.5 617.1L710 618.8 708.5 617.1C706.4 614.7 703.7 611.7 698.7 611.7L698.7 611.7Z" fill="#404040"/></g></svg>