<svg width="142" height="142" xmlns="http://www.w3.org/2000/svg" xmlns:xlink="http://www.w3.org/1999/xlink" overflow="hidden"><defs><clipPath id="clip0"><rect x="-157" y="544" width="142" height="142"/></clipPath></defs><g clip-path="url(#clip0)" transform="translate(157 -544)"><path d="M69.8018 139.821C69.2053 139.821 68.6071 139.594 68.152 139.139 67.24 138.229 67.24 136.754 68.152 135.844L134.186 69.9106 68.1504 3.97869C67.2384 3.06985 67.2384 1.59241 68.1504 0.68357 69.0623-0.226821 70.5398-0.226821 71.4502 0.68357L139.136 68.2638C140.048 69.1727 140.048 70.6501 139.136 71.5589L71.4502 139.139C70.995 139.594 70.3984 139.821 69.8018 139.821Z" fill="#FFFFFF" transform="matrix(-1 0 0 1 -16.0894 545.089)"/><path d="M137.488 72.2409 2.33346 72.2409C1.044 72.2409 0 71.1985 0 69.9106 0 68.6227 1.044 67.5802 2.33346 67.5802L137.486 67.5802C138.776 67.5802 139.821 68.6227 139.821 69.9106 139.821 71.1985 138.776 72.2409 137.488 72.2409Z" fill="#FFFFFF" transform="matrix(-1 0 0 1 -16.0894 545.089)"/></g></svg>