<svg xmlns="http://www.w3.org/2000/svg" xmlns:xlink="http://www.w3.org/1999/xlink" version="1.1" width="256" height="256" viewBox="0 0 256 256" xml:space="preserve">
<desc>Created with Fabric.js 1.7.22</desc>
<defs>
</defs>
<g transform="translate(128 128) scale(0.72 0.72)" style="">
	<g style="stroke: none; stroke-width: 0; stroke-dasharray: none; stroke-linecap: butt; stroke-linejoin: miter; stroke-miterlimit: 10; fill: none; fill-rule: nonzero; opacity: 1;" transform="translate(-175.05 -175.05000000000004) scale(3.89 3.89)" >
	<path d="M 45 86.721 C 20.187 86.721 0 68.005 0 45 C 0 21.996 20.187 3.28 45 3.28 c 24.813 0 45 18.716 45 41.72 v 0.127 c -0.012 7.174 -5.856 13.009 -13.029 13.009 H 66.074 v -2 h 10.896 c 6.071 0 11.02 -4.939 11.029 -11.01 V 45 C 88 23.098 68.71 5.28 45 5.28 C 21.29 5.28 2 23.098 2 45 c 0 21.902 19.29 39.721 43 39.721 c 3.841 0 7.184 -0.337 10.217 -1.029 c 2.022 -0.462 2.569 -2.112 2.424 -3.385 c -0.146 -1.266 -1.044 -2.74 -3.102 -2.74 c -0.005 0 -0.011 0 -0.016 0 h -0.219 c -2.951 0 -5.801 -1.235 -7.819 -3.389 c -2.047 -2.184 -3.067 -5.038 -2.873 -8.038 c 0.214 -3.299 1.972 -6.268 4.822 -8.144 l 1.1 1.67 c -2.322 1.528 -3.753 3.936 -3.926 6.603 c -0.158 2.442 0.671 4.766 2.336 6.541 c 1.666 1.778 3.925 2.757 6.36 2.757 h 0.215 c 0.008 0 0.016 0 0.023 0 c 3.137 0 4.835 2.336 5.085 4.512 c 0.25 2.187 -0.884 4.859 -3.966 5.563 C 52.48 86.367 48.993 86.721 45 86.721 z" style="stroke: none; stroke-width: 1; stroke-dasharray: none; stroke-linecap: butt; stroke-linejoin: miter; stroke-miterlimit: 10; fill: rgb(0,0,0); fill-rule: nonzero; opacity: 1;" transform=" matrix(1 0 0 1 0 0) " stroke-linecap="round" />
	<path d="M 45 29.628 c -4.576 0 -8.299 -3.723 -8.299 -8.299 S 40.424 13.03 45 13.03 s 8.299 3.723 8.299 8.299 S 49.576 29.628 45 29.628 z M 45 15.03 c -3.473 0 -6.299 2.826 -6.299 6.299 c 0 3.474 2.826 6.299 6.299 6.299 c 3.474 0 6.299 -2.826 6.299 -6.299 C 51.299 17.856 48.474 15.03 45 15.03 z" style="stroke: none; stroke-width: 1; stroke-dasharray: none; stroke-linecap: butt; stroke-linejoin: miter; stroke-miterlimit: 10; fill: rgb(0,0,0); fill-rule: nonzero; opacity: 1;" transform=" matrix(1 0 0 1 0 0) " stroke-linecap="round" />
	<path d="M 68.746 42.491 c -4.576 0 -8.299 -3.723 -8.299 -8.299 s 3.723 -8.299 8.299 -8.299 s 8.299 3.723 8.299 8.299 S 73.322 42.491 68.746 42.491 z M 68.746 27.893 c -3.474 0 -6.299 2.826 -6.299 6.299 c 0 3.474 2.825 6.299 6.299 6.299 s 6.299 -2.826 6.299 -6.299 C 75.045 30.718 72.22 27.893 68.746 27.893 z" style="stroke: none; stroke-width: 1; stroke-dasharray: none; stroke-linecap: butt; stroke-linejoin: miter; stroke-miterlimit: 10; fill: rgb(0,0,0); fill-rule: nonzero; opacity: 1;" transform=" matrix(1 0 0 1 0 0) " stroke-linecap="round" />
	<path d="M 22.244 42.491 c -4.576 0 -8.299 -3.723 -8.299 -8.299 s 3.723 -8.299 8.299 -8.299 s 8.299 3.723 8.299 8.299 S 26.82 42.491 22.244 42.491 z M 22.244 27.893 c -3.473 0 -6.299 2.826 -6.299 6.299 c 0 3.474 2.826 6.299 6.299 6.299 s 6.299 -2.826 6.299 -6.299 C 28.542 30.718 25.717 27.893 22.244 27.893 z" style="stroke: none; stroke-width: 1; stroke-dasharray: none; stroke-linecap: butt; stroke-linejoin: miter; stroke-miterlimit: 10; fill: rgb(0,0,0); fill-rule: nonzero; opacity: 1;" transform=" matrix(1 0 0 1 0 0) " stroke-linecap="round" />
	<path d="M 24.222 68.215 c -4.576 0 -8.299 -3.723 -8.299 -8.299 s 3.723 -8.299 8.299 -8.299 s 8.299 3.723 8.299 8.299 S 28.798 68.215 24.222 68.215 z M 24.222 53.617 c -3.473 0 -6.299 2.825 -6.299 6.299 s 2.826 6.299 6.299 6.299 c 3.474 0 6.299 -2.825 6.299 -6.299 S 27.696 53.617 24.222 53.617 z" style="stroke: none; stroke-width: 1; stroke-dasharray: none; stroke-linecap: butt; stroke-linejoin: miter; stroke-miterlimit: 10; fill: rgb(0,0,0); fill-rule: nonzero; opacity: 1;" transform=" matrix(1 0 0 1 0 0) " stroke-linecap="round" />
	<path d="M 55.659 62.767 c -2.497 0 -5.099 -1.051 -7.315 -3.14 c -7.676 -7.233 -9.011 -15.054 -9.348 -20.307 l -0.068 -1.069 l 1.071 0.005 c 5.264 0.025 13.149 0.894 20.826 8.129 c 2.064 1.944 3.318 4.383 3.532 6.866 c 0.215 2.5 -0.625 4.893 -2.363 6.737 C 60.244 61.844 57.998 62.767 55.659 62.767 z M 41.075 40.274 c 0.439 4.869 1.988 11.628 8.64 17.897 c 3.45 3.25 8.001 3.438 10.823 0.445 c 1.343 -1.425 1.991 -3.27 1.825 -5.194 c -0.171 -1.993 -1.205 -3.976 -2.91 -5.583 C 52.799 41.57 45.961 40.424 41.075 40.274 z" style="stroke: none; stroke-width: 1; stroke-dasharray: none; stroke-linecap: butt; stroke-linejoin: miter; stroke-miterlimit: 10; fill: rgb(0,0,0); fill-rule: nonzero; opacity: 1;" transform=" matrix(1 0 0 1 0 0) " stroke-linecap="round" />
	<path d="M 84.122 86.721 c -1.503 0 -2.926 -0.564 -4.024 -1.6 L 54.456 60.956 l 2.086 -0.275 c 1.532 -0.203 2.913 -0.916 3.995 -2.063 l 0 0 c 1.081 -1.148 1.712 -2.57 1.824 -4.112 l 0.152 -2.099 l 25.641 24.165 c 2.357 2.222 2.468 5.946 0.246 8.304 c -1.075 1.142 -2.532 1.797 -4.101 1.843 C 84.24 86.72 84.182 86.721 84.122 86.721 z M 58.688 62.196 l 22.781 21.47 c 1.556 1.466 4.012 1.392 5.477 -0.162 c 1.465 -1.555 1.392 -4.012 -0.162 -5.478 L 64.001 56.558 c -0.387 1.266 -1.064 2.43 -2.007 3.431 l -0.001 0.001 C 61.05 60.989 59.928 61.735 58.688 62.196 z" style="stroke: none; stroke-width: 1; stroke-dasharray: none; stroke-linecap: butt; stroke-linejoin: miter; stroke-miterlimit: 10; fill: rgb(0,0,0); fill-rule: nonzero; opacity: 1;" transform=" matrix(1 0 0 1 0 0) " stroke-linecap="round" />
</g>
</g>
</svg>