<svg width="165" height="166" xmlns="http://www.w3.org/2000/svg" xmlns:xlink="http://www.w3.org/1999/xlink" overflow="hidden"><defs><clipPath id="clip0"><rect x="1486" y="918" width="165" height="166"/></clipPath></defs><g clip-path="url(#clip0)" transform="translate(-1486 -918)"><path d="M1568.1 1083.1C1522.81 1083.1 1486.1 1046.17 1486.1 1000.6 1486.1 955.036 1522.81 918.101 1568.1 918.101 1613.39 918.101 1650.1 955.036 1650.1 1000.6 1650.1 1046.17 1613.39 1083.1 1568.1 1083.1L1568.1 1083.1ZM1568.1 927.076C1527.96 927.076 1495.02 960.214 1495.02 1000.6 1495.02 1040.99 1527.96 1074.13 1568.1 1074.13 1608.24 1074.13 1641.18 1040.99 1641.18 1000.6 1641.18 960.214 1608.24 927.076 1568.1 927.076L1568.1 927.076Z" fill="#404040" fill-rule="evenodd"/><path d="M1520.34 1060.1 1512.1 1056.33C1514.5 1050.51 1522.06 1047.42 1530.64 1043.65 1538.88 1039.88 1549.18 1035.43 1549.18 1029.94L1549.18 1022.4C1546.09 1020 1541.29 1014.52 1540.6 1006.64 1538.2 1004.24 1534.42 999.786 1534.42 994.303 1534.42 990.876 1535.79 988.134 1536.82 986.42 1536.14 982.651 1534.76 975.112 1534.76 969.285 1534.76 950.437 1547.81 938.1 1568.41 938.1 1574.25 938.1 1581.46 939.814 1585.24 943.926 1594.51 945.639 1602.06 956.606 1602.06 969.285 1602.06 977.51 1600.69 984.364 1599.66 987.449 1600.69 989.162 1601.72 991.561 1601.72 994.303 1601.72 1000.81 1598.63 1004.93 1595.54 1006.98 1594.85 1014.86 1590.39 1020 1587.64 1022.4L1587.64 1029.94C1587.64 1034.74 1596.23 1037.82 1604.12 1040.91 1613.4 1044.34 1623.01 1047.76 1626.1 1055.65L1617.52 1058.73C1616.14 1054.62 1607.9 1051.88 1601.03 1049.13 1590.39 1045.36 1578.37 1040.91 1578.37 1029.94L1578.37 1017.61 1580.43 1016.24C1580.78 1016.24 1586.61 1012.12 1586.61 1004.24L1586.61 1001.16 1589.36 1000.13C1589.7 999.786 1592.45 998.415 1592.45 994.303 1592.45 992.932 1591.42 991.561 1591.08 991.218L1589.36 989.162 1590.05 986.763C1590.05 986.763 1592.45 979.224 1592.45 968.943 1592.45 960.376 1587.64 952.493 1582.49 952.493L1579.74 952.493 1578.37 950.095C1577.34 948.381 1573.22 946.668 1567.73 946.668 1552.27 946.668 1543 954.892 1543 968.943 1543 975.454 1545.41 986.078 1545.41 986.078L1546.09 988.477 1544.38 990.19C1544.38 990.19 1543 991.904 1543 993.617 1543 996.016 1546.09 999.1 1547.47 1000.47L1549.18 1001.84 1549.18 1004.24C1549.18 1011.78 1555.71 1015.89 1555.71 1015.89L1557.77 1017.26 1557.77 1029.6C1557.77 1040.91 1545.06 1046.74 1533.73 1051.53 1528.93 1054.27 1521.71 1057.7 1520.34 1060.1" fill="#404040" fill-rule="evenodd"/></g></svg>