<svg width="64" height="64" xmlns="http://www.w3.org/2000/svg" xmlns:xlink="http://www.w3.org/1999/xlink" overflow="hidden"><defs><clipPath id="clip0"><rect x="401" y="133" width="64" height="64"/></clipPath></defs><g clip-path="url(#clip0)" transform="translate(-401 -133)"><path d="M433 188.4C420.1 188.4 409.6 177.9 409.6 165 409.6 152.1 420.1 141.6 433 141.6 445.9 141.6 456.4 152.1 456.4 165 456.4 177.9 445.9 188.4 433 188.4L433 188.4ZM433 144.1C421.5 144.1 412.1 153.5 412.1 165 412.1 176.5 421.5 185.9 433 185.9 444.5 185.9 453.9 176.5 453.9 165 453.9 153.5 444.5 144.1 433 144.1L433 144.1Z" fill="#134563"/><path d="M430.2 175.1 418.3 163.1 420.1 161.3 430.2 171.5 445.9 155.8 447.7 157.6 430.2 175.1" fill="#134563"/></g></svg>